<?xml version="1.0" standalone="no"?>
<!DOCTYPE svg PUBLIC "-//W3C//DTD SVG 20010904//EN"
 "http://www.w3.org/TR/2001/REC-SVG-20010904/DTD/svg10.dtd">
<svg version="1.0" xmlns="http://www.w3.org/2000/svg"
 width="417.000000pt" height="417.000000pt" viewBox="0 0 417.000000 417.000000"
 preserveAspectRatio="xMidYMid meet">
<metadata>
Created by potrace 1.14, written by Peter Selinger 2001-2017
</metadata>
<g transform="translate(0.000000,417.000000) scale(0.100000,-0.100000)"
fill="#000000" stroke="none">
<path d="M1918 4165 c-2 -1 -32 -6 -68 -10 -36 -4 -76 -8 -90 -10 -151 -18
-420 -104 -597 -192 -127 -62 -327 -191 -408 -264 -114 -101 -163 -148 -204
-193 -25 -28 -51 -57 -58 -64 -61 -61 -194 -263 -262 -399 -44 -87 -103 -214
-102 -220 0 -2 -1 -8 -4 -15 -58 -172 -83 -274 -112 -468 -2 -19 -6 -121 -7
-226 -3 -199 20 -409 58 -529 1 -5 8 -30 15 -55 93 -334 276 -647 529 -903
162 -165 336 -290 561 -402 296 -148 601 -215 946 -210 94 1 206 8 250 14 171
25 406 86 467 121 10 6 23 10 29 10 20 0 246 117 344 180 287 180 479 382 692
725 24 38 104 207 132 279 51 127 106 345 127 496 10 77 11 400 1 490 -18 163
-56 317 -132 530 -44 123 -180 364 -279 495 -231 304 -596 574 -949 700 -115
40 -308 89 -422 105 -70 11 -448 23 -457 15z"/>
</g>
</svg>
